HIERARCHY
ROOT joint_Root
{
	OFFSET 0.0 0.0 0.0
	CHANNELS 6 Xposition Yposition Zposition Zrotation Xrotation Yrotation 
	JOINT Hips
	{
		OFFSET 4.5925 91.4895 -427.239
		CHANNELS 6 Xposition Yposition Zposition Zrotation Xrotation Yrotation 
		JOINT Spine
		{
			OFFSET 15.7357 0.0 0.0
			CHANNELS 6 Xposition Yposition Zposition Zrotation Xrotation Yrotation 
			JOINT Chest
			{
				OFFSET 8.98455 -0.406207 0.0
				CHANNELS 6 Xposition Yposition Zposition Zrotation Xrotation Yrotation 
				JOINT Neck
				{
					OFFSET 16.3773 0.0 0.0
					CHANNELS 6 Xposition Yposition Zposition Zrotation Xrotation Yrotation 
					JOINT Head
					{
						OFFSET 6.45672 0.0 0.0
						CHANNELS 6 Xposition Yposition Zposition Zrotation Xrotation Yrotation 
						End Site
						{
							OFFSET 0.0 0.0 0.0
						}
					}
				}
				JOINT Shoulder_L
				{
					OFFSET 12.9942 -0.242716 4.98039
					CHANNELS 6 Xposition Yposition Zposition Zrotation Xrotation Yrotation 
					JOINT UpperArm_L
					{
						OFFSET 5.34809 0.0 0.0
						CHANNELS 6 Xposition Yposition Zposition Zrotation Xrotation Yrotation 
						JOINT LowerArm_L
						{
							OFFSET 24.3286 1.87007e-05 0.0
							CHANNELS 6 Xposition Yposition Zposition Zrotation Xrotation Yrotation 
							JOINT Hand_L
							{
								OFFSET 22.2916 0.0 0.0
								CHANNELS 6 Xposition Yposition Zposition Zrotation Xrotation Yrotation 
								End Site
								{
									OFFSET 0.0 0.0 0.0
								}
							}
						}
					}
				}
				JOINT Shoulder_R
				{
					OFFSET 12.9945 -0.242716 -4.98039
					CHANNELS 6 Xposition Yposition Zposition Zrotation Xrotation Yrotation 
					JOINT UpperArm_R
					{
						OFFSET -5.34813 0.0 0.0
						CHANNELS 6 Xposition Yposition Zposition Zrotation Xrotation Yrotation 
						JOINT LowerArm_R
						{
							OFFSET -24.3289 0.000322201 0.0
							CHANNELS 6 Xposition Yposition Zposition Zrotation Xrotation Yrotation 
							JOINT Hand_R
							{
								OFFSET -22.2915 -0.000108084 0.0
								CHANNELS 6 Xposition Yposition Zposition Zrotation Xrotation Yrotation 
								End Site
								{
									OFFSET 0.0 0.0 0.0
								}
							}
						}
					}
				}
			}
		}
		JOINT UpperLeg_L
		{
			OFFSET -2.19248 -6.46944 0.0
			CHANNELS 6 Xposition Yposition Zposition Zrotation Xrotation Yrotation 
			JOINT LowerLeg_L
			{
				OFFSET 39.0811 0.0 -1.23785e-05
				CHANNELS 6 Xposition Yposition Zposition Zrotation Xrotation Yrotation 
				JOINT Foot_L
				{
					OFFSET 40.9854 0.0 -1.26872e-05
					CHANNELS 6 Xposition Yposition Zposition Zrotation Xrotation Yrotation 
					JOINT Toes_L
					{
						OFFSET 11.7543 0.0 0.0
						CHANNELS 6 Xposition Yposition Zposition Zrotation Xrotation Yrotation 
						End Site
						{
							OFFSET 0.0 0.0 0.0
						}
					}
				}
			}
		}
		JOINT UpperLeg_R
		{
			OFFSET -2.19251 6.46944 0.0
			CHANNELS 6 Xposition Yposition Zposition Zrotation Xrotation Yrotation 
			JOINT LowerLeg_R
			{
				OFFSET -39.0811 -0.00228153 -0.0401928
				CHANNELS 6 Xposition Yposition Zposition Zrotation Xrotation Yrotation 
				JOINT Foot_R
				{
					OFFSET -40.9854 0.0 0.0
					CHANNELS 6 Xposition Yposition Zposition Zrotation Xrotation Yrotation 
					JOINT Toes_R
					{
						OFFSET -11.7543 0.0 0.0
						CHANNELS 6 Xposition Yposition Zposition Zrotation Xrotation Yrotation 
						End Site
						{
							OFFSET 0.0 0.0 0.0
						}
					}
				}
			}
		}
	}
}
MOTION
Frames:	5
Frame Time:	0.0333333
0.000000 0.000000 0.000000 0.000000 0.000000 -0.000000 3.583600 91.246800 1.672940 89.057500 -10.026700 2.338710 15.735700 0.000005 -0.000001 83.315800 84.908700 -80.389000 8.984550 -0.406207 -0.000000 2.388460 -1.321470 5.875570 16.377300 -0.000001 -0.000001 5.115700 0.254070 -2.373850 6.456720 -0.000001 -0.000000 -1.592160 -0.625608 1.866360 12.994200 -0.242716 4.980390 -84.369800 -10.680600 -61.990400 5.348090 -0.000007 -0.000001 -43.077400 -67.968000 -82.938300 24.328600 0.000019 0.000005 9.363300 6.216640 -56.708100 22.291600 -0.000001 0.000005 21.178300 5.434120 -4.081140 12.994500 -0.242716 -4.980390 87.563500 9.524300 -75.578600 -5.348130 -0.000001 -0.000004 -57.955900 13.691200 -7.262330 -24.328900 0.000322 -0.000009 -0.400917 -0.815090 -26.131600 -22.291500 -0.000108 -0.000004 17.727200 5.417470 -3.513960 -2.192480 -6.469440 -0.000000 -178.207000 -16.728400 -3.885160 39.081100 -0.000007 -0.000012 -0.161106 0.315516 27.049600 40.985400 -0.000006 -0.000013 1.405580 1.322080 -70.952900 11.754300 -0.000000 0.000003 -0.000257 -0.002285 -16.663100 -2.192510 6.469440 -0.000001 174.278000 17.917800 175.016000 -39.081100 -0.002282 -0.040193 -0.020941 0.048195 26.709700 -40.985400 0.000008 0.000006 4.796100 18.422900 -70.164200 -11.754300 -0.000006 -0.000006 -0.000728 -0.011467 -17.039600
0.000000 0.000000 0.000000 0.000000 0.000000 -0.000000 3.335250 91.258400 1.715380 89.094300 -9.489650 2.319400 15.735700 0.000005 -0.000001 83.374500 84.874500 -80.557700 8.984550 -0.406207 -0.000000 2.455490 -1.312170 5.656350 16.377300 -0.000001 -0.000001 4.893080 0.013981 -2.252410 6.456720 -0.000001 -0.000000 -1.742820 -0.813792 1.700020 12.994200 -0.242716 4.980390 -84.899000 -9.918570 -62.605500 5.348090 -0.000007 -0.000001 -39.405700 -65.936100 -75.645600 24.328600 0.000019 0.000005 9.204000 4.787390 -62.751500 22.291600 -0.000001 0.000005 20.917700 5.419450 -3.579630 12.994500 -0.242716 -4.980390 87.557900 9.513940 -75.531800 -5.348130 -0.000001 -0.000004 -57.861500 14.593300 -7.384750 -24.328900 0.000322 -0.000009 -0.393886 -0.807250 -25.949400 -22.291500 -0.000108 -0.000004 17.610200 5.417550 -3.516540 -2.192480 -6.469440 -0.000000 -178.043000 -16.558800 -3.866470 39.081100 -0.000007 -0.000012 -0.161749 0.317627 26.987300 40.985400 -0.000006 -0.000013 1.328330 1.715050 -70.896500 11.754300 -0.000000 0.000003 -0.000233 -0.002104 -16.656600 -2.192510 6.469440 -0.000001 174.383000 18.187700 175.163000 -39.081100 -0.002282 -0.040193 -0.024683 0.055751 26.660700 -40.985400 0.000008 0.000006 4.838280 18.138100 -70.251300 -11.754300 -0.000006 -0.000006 -0.000670 -0.010600 -17.004400
0.000000 0.000000 0.000000 0.000000 0.000000 -0.000000 3.074390 91.267200 1.756280 89.163100 -8.804590 2.320350 15.735700 0.000005 -0.000001 83.360700 84.852600 -80.679200 8.984550 -0.406207 -0.000000 2.496740 -1.312470 5.386350 16.377300 -0.000001 -0.000001 4.680940 -0.261413 -2.002210 6.456720 -0.000001 -0.000000 -1.818960 -0.923440 1.450650 12.994200 -0.242716 4.980390 -85.464800 -9.153060 -63.497800 5.348090 -0.000007 -0.000001 -35.963500 -62.908800 -67.700500 24.328600 0.000019 0.000005 9.229900 3.402080 -69.939400 22.291600 -0.000001 0.000005 20.698000 5.404940 -3.098450 12.994500 -0.242716 -4.980390 87.534300 9.535390 -75.428700 -5.348130 -0.000001 -0.000004 -57.793000 15.774500 -7.460560 -24.328900 0.000322 -0.000009 -0.342983 -0.710288 -25.705400 -22.291500 -0.000108 -0.000004 17.457900 5.416820 -3.492330 -2.192480 -6.469440 -0.000000 -177.868000 -16.409000 -3.854550 39.081100 -0.000007 -0.000012 -0.163128 0.321034 26.936800 40.985400 -0.000006 -0.000013 1.283520 2.300110 -70.827500 11.754300 -0.000000 0.000003 -0.000255 -0.002273 -16.662700 -2.192510 6.469440 -0.000001 174.413000 18.725700 175.371000 -39.081100 -0.002282 -0.040193 -0.035022 0.076532 26.604100 -40.985400 0.000008 0.000006 4.762840 17.959000 -70.313100 -11.754300 -0.000006 -0.000006 -0.000495 -0.007946 -16.896600
0.000000 0.000000 0.000000 0.000000 0.000000 -0.000000 2.790570 91.279700 1.793650 89.220100 -8.085530 2.346060 15.735700 0.000005 -0.000001 83.468100 84.842200 -80.943900 8.984550 -0.406207 -0.000000 2.516490 -1.287990 5.071920 16.377300 -0.000001 -0.000001 4.510260 -0.504251 -1.704830 6.456720 -0.000001 -0.000000 -1.789410 -1.023830 1.219270 12.994200 -0.242716 4.980390 -85.890700 -8.576610 -64.277800 5.348090 -0.000007 -0.000001 -33.731300 -58.260400 -59.996300 24.328600 0.000019 0.000005 8.888530 1.977520 -77.561700 22.291600 -0.000001 0.000005 21.287200 5.416210 -3.467680 12.994500 -0.242716 -4.980390 87.514200 9.539650 -75.321500 -5.348130 -0.000001 -0.000004 -57.886300 17.056600 -7.422940 -24.328900 0.000322 -0.000009 -0.270236 -0.566740 -25.405100 -22.291500 -0.000108 -0.000004 17.248800 5.416520 -3.482310 -2.192480 -6.469440 -0.000000 -177.656000 -16.251100 -3.799820 39.081100 -0.000007 -0.000012 -0.165042 0.325848 26.862400 40.985400 -0.000006 -0.000013 1.225950 2.906630 -70.747500 11.754300 -0.000000 0.000003 -0.000258 -0.002291 -16.663300 -2.192510 6.469440 -0.000001 174.490000 19.233000 175.599000 -39.081100 -0.002282 -0.040193 -0.035943 0.078534 26.556100 -40.985400 0.000008 0.000006 4.891880 17.717100 -70.448500 -11.754300 -0.000006 -0.000006 -0.000530 -0.008492 -16.918700
0.000000 0.000000 0.000000 0.000000 0.000000 -0.000000 2.510060 91.287700 1.816400 89.271400 -7.264870 2.320700 15.735700 0.000005 -0.000001 83.028300 84.840400 -80.668000 8.984550 -0.406207 -0.000000 2.509820 -1.359650 4.745910 16.377300 -0.000001 -0.000001 4.268420 -0.698325 -1.453790 6.456720 -0.000001 -0.000000 -1.618860 -1.017370 1.042740 12.994200 -0.242716 4.980390 -86.308900 -7.989460 -65.103000 5.348090 -0.000007 -0.000001 -31.529300 -52.024300 -51.912000 24.328600 0.000019 0.000005 7.831140 0.732126 -84.696500 22.291600 -0.000001 0.000005 22.844600 5.440990 -4.315130 12.994500 -0.242716 -4.980390 87.526500 9.505500 -75.341300 -5.348130 -0.000001 -0.000004 -58.237400 18.140200 -7.222970 -24.328900 0.000322 -0.000009 -0.254116 -0.538725 -25.161300 -22.291500 -0.000108 -0.000004 17.117100 5.415120 -3.435540 -2.192480 -6.469440 -0.000000 -177.483000 -15.885300 -3.857530 39.081100 -0.000007 -0.000012 -0.163917 0.324010 26.835000 40.985400 -0.000006 -0.000013 1.155690 3.436820 -70.667000 11.754300 -0.000000 0.000003 -0.000274 -0.002408 -16.667500 -2.192510 6.469440 -0.000001 174.577000 19.860100 175.782000 -39.081100 -0.002282 -0.040193 -0.038495 0.083805 26.511100 -40.985400 0.000008 0.000006 4.949310 17.475700 -70.560100 -11.754300 -0.000006 -0.000006 -0.000486 -0.007819 -16.891400
